<?xml version="1.0" encoding="UTF-8" standalone="no"?>
<!-- Created with Inkscape (http://www.inkscape.org/) -->

<svg
   width="1920"
   height="500"
   viewBox="0 0 1920 500"
   version="1.1"
   id="svg1"
   inkscape:version="1.3.2 (091e20e, 2023-11-25, custom)"
   sodipodi:docname="tme - light bg.svg"
   xmlns:inkscape="http://www.inkscape.org/namespaces/inkscape"
   xmlns:sodipodi="http://sodipodi.sourceforge.net/DTD/sodipodi-0.dtd"
   xmlns="http://www.w3.org/2000/svg"
   xmlns:svg="http://www.w3.org/2000/svg">
  <sodipodi:namedview
     id="namedview1"
     pagecolor="#ffffff"
     bordercolor="#000000"
     borderopacity="0.25"
     inkscape:showpageshadow="2"
     inkscape:pageopacity="0.0"
     inkscape:pagecheckerboard="0"
     inkscape:deskcolor="#d1d1d1"
     inkscape:document-units="px"
     inkscape:zoom="0.70104166"
     inkscape:cx="701.09956"
     inkscape:cy="412.95691"
     inkscape:window-width="2560"
     inkscape:window-height="1351"
     inkscape:window-x="-9"
     inkscape:window-y="-9"
     inkscape:window-maximized="1"
     inkscape:current-layer="layer4" />
  <defs
     id="defs1" />
  <g
     inkscape:groupmode="layer"
     id="layer2"
     inkscape:label="Icon"
     style="display:inline">
    <path
       style="display:inline;fill:#182ea0;fill-opacity:1;stroke:none;stroke-width:9.96471;stroke-linecap:round"
       id="path10"
       d="m 113.28064,421.96186 c -5.28814,-19.58791 -7.96517,-29.02574 -11.13769,-49.07684 l -14.326882,-8.12667 c 3.243285,20.44072 7.978196,40.60751 13.372312,60.57685 2.38531,8.55053 14.47756,5.17717 12.09226,-3.37334 z"
       sodipodi:nodetypes="ccccc" />
    <path
       style="display:inline;fill:#182ea0;fill-opacity:1;stroke:none;stroke-width:9.96471;stroke-linecap:round"
       id="path11"
       d="m 95.875629,235.57145 c 0.01953,-6.67922 1.496391,-13.27442 2.244577,-19.91161 1.015016,-6.1517 1.423112,-14.77712 2.669214,-20.8862 1.21058,-5.93492 0.73741,-10.55353 2.35024,-16.39201 2.65426,-9.60839 2.17825,-25.09702 6.05389,-34.3563 l 12.45168,-30.61508 c -2.10108,2.77435 -3.94348,5.73542 -5.91525,8.60312 -5.61276,10.03505 -7.14808,12.14887 -11.74784,23.18873 -4.037835,9.69122 -7.935968,21.32545 -10.694323,31.38002 -1.686485,6.14744 -3.242562,12.337 -4.509916,18.5843 -1.282099,6.31997 -2.088702,12.72719 -3.133053,19.09077 -0.764475,6.81672 -1.375652,13.65239 -2.293424,20.45016 -1.967455,14.57254 12.489792,12.98003 12.524205,0.8641 z"
       sodipodi:nodetypes="scsscccssscss" />
    <path
       style="fill:#182ea0;fill-opacity:1;stroke:none;stroke-width:9.96471;stroke-linecap:round"
       id="path7"
       d="m 173.65611,274.10006 c 4.78708,-2.34506 9.89105,-4.05588 15.12741,-5.06861 1.56508,-0.30269 3.15296,-0.47275 4.72942,-0.70911 1.51032,-0.1 3.02064,-0.19982 4.53095,-0.29974 8.85478,-0.62766 7.96713,-13.15019 -0.88765,-12.52252 v 0 c -1.85377,0.13866 -3.70751,0.27712 -5.56126,0.41567 -1.91834,0.30388 -3.85024,0.5319 -5.75499,0.9117 -6.4034,1.27677 -12.64918,3.42687 -18.45994,6.40003 -7.68807,4.43784 -1.41202,15.31043 6.27606,10.87258 z" />
    <path
       style="fill:#091450;fill-opacity:1;stroke:none;stroke-width:9.96471;stroke-linecap:round"
       id="path8"
       d="m 134.88839,325.49968 c 11.69442,-1.62207 23.21705,-4.26982 34.71233,-6.91623 25.30594,-6.18296 50.26886,-13.66785 75.27493,-20.94579 15.48369,-4.48593 30.93732,-9.07778 46.31843,-13.9045 8.46969,-2.65805 4.71065,-14.63601 -3.75903,-11.97797 v 0 c -15.29762,4.80116 -30.66797,9.36662 -46.06764,13.82867 -24.77777,7.21149 -49.5123,14.62947 -74.58463,20.76597 -10.99927,2.53506 -22.02212,5.0664 -33.20532,6.66451 -8.82847,0.92699 -7.51752,13.41231 1.31093,12.48534 z" />
    <path
       style="fill:#091450;fill-opacity:1;stroke:none;stroke-width:9.96471;stroke-linecap:round"
       id="path12"
       d="m 292.66965,281.37177 c 5.93301,-1.94959 11.68274,-4.40264 17.45896,-6.76481 8.21647,-3.36012 3.46453,-14.97999 -4.75194,-11.61985 v 0 c -5.50462,2.25112 -10.98132,4.59644 -16.63326,6.46044 -8.43168,2.77628 -4.50546,14.7005 3.92624,11.92422 z" />
    <path
       style="fill:#091450;fill-opacity:1;stroke:none;stroke-width:9.96471;stroke-linecap:round"
       id="path13"
       d="m 138.25731,269.09467 c 0.22334,-5.59915 -0.62565,-11.18004 -1.35836,-16.71603 -0.34015,-2.56527 -0.72915,-5.12316 -1.1258,-7.68005 -0.11132,-0.71768 -0.26152,-1.46892 -0.27628,-2.2031 -0.53474,-8.86087 -13.06589,-8.10464 -12.53116,0.75623 v 0 c 0.25373,3.6185 1.1229,7.16853 1.48803,10.77577 0.61606,4.64497 1.33515,9.31791 1.29384,14.01415 -0.74457,8.84572 11.76514,9.89874 12.50973,1.05303 z" />
    <path
       style="fill:#091450;fill-opacity:1;stroke:none;stroke-width:9.96471;stroke-linecap:round"
       id="path14"
       d="m 220.17634,250.52845 c -0.44857,-5.92826 -1.27531,-11.79766 -2.73816,-17.56139 -0.17324,-0.56675 -0.34642,-1.13351 -0.51962,-1.70026 -2.63143,-8.478 -14.62113,-4.75659 -11.98971,3.7214 v 0 c 0.1166,0.3665 0.23293,0.73299 0.34939,1.09949 1.34046,5.1493 1.98601,10.41304 2.40864,15.71157 0.89859,8.8314 13.38807,7.56057 12.48946,-1.27081 z" />
    <path
       style="fill:#182ea0;fill-opacity:1;stroke:none;stroke-width:9.334;stroke-linecap:round"
       id="path15"
       d="m 221.20905,324.10465 c -2.48526,4.04188 -3.56416,8.93658 -3.97653,13.77145 -0.11504,1.35008 -0.12324,2.70769 -0.18496,4.06154 0.0393,8.68391 2.62879,16.83899 6.32321,24.2922 0.89985,1.81533 1.90961,3.55605 2.86441,5.33408 7.05087,12.25985 15.52947,23.3012 24.26874,34.00527 4.55736,5.56183 9.38662,10.81573 14.29811,15.96672 5.69628,5.97155 13.21825,-3.30873 7.522,-9.28027 v 0 c -4.70798,-4.93336 -9.33651,-9.96618 -13.70449,-15.29418 -8.25825,-10.10508 -16.2803,-20.51766 -22.97516,-32.0687 -0.82694,-1.52102 -1.6976,-3.0119 -2.4808,-4.56304 -2.78437,-5.51454 -4.9429,-11.52571 -5.10565,-17.98779 0.11309,-3.61667 0.23173,-7.5591 1.92291,-10.76909 4.71854,-7.12981 -4.05329,-14.598 -8.77185,-7.46819 z" />
    <path
       style="fill:#182ea0;fill-opacity:1;stroke:none;stroke-width:8.82103;stroke-linecap:round"
       id="path16"
       d="m 252.69764,417.10811 c -5.45708,0.9298 -10.89137,2.05897 -16.34173,3.05127 -10.09046,1.74338 -20.26698,2.55172 -30.44505,2.74047 -7.76283,0.14394 -12.50463,-0.0328 -20.30805,-0.19433 -19.98151,-0.80489 -39.96721,-1.37679 -59.95257,-1.99035 -5.52001,-0.32638 -6.80834,-0.25247 -11.92756,-1.04622 -1.23722,-0.1918 -2.46377,-0.48273 -3.69564,-0.72411 -6.87769,-1.33059 -8.35229,11.08154 -1.47459,12.41214 v 0 c 1.4062,0.26902 2.80667,0.59241 4.21863,0.80705 5.44716,0.82811 6.86344,0.76235 12.64258,1.10148 20.01128,0.61418 40.02286,1.18812 60.03031,1.99234 7.99138,0.16386 12.79373,0.34331 20.75306,0.19062 10.54747,-0.20223 21.09268,-1.05121 31.54892,-2.86109 5.38396,-0.98107 10.75259,-2.09183 16.14242,-3.01765 6.90512,-1.07444 5.71438,-13.53611 -1.19073,-12.46166 z" />
    <path
       style="fill:#091450;fill-opacity:1;stroke:none;stroke-width:9.96471;stroke-linecap:round"
       id="path18"
       d="m 123.13711,208.26528 c 0.35787,0.51421 0.68766,1.04912 1.07361,1.54258 2.80513,3.58666 6.13543,6.88334 9.3792,10.05329 6.81541,6.66029 7.26101,6.85392 14.92833,13.58734 9.0836,7.22642 11.62733,9.59666 21.62857,16.05655 4.10407,2.65084 8.24071,5.27476 12.57311,7.53316 4.72388,2.46247 9.61556,4.60406 14.55199,6.60665 11.24892,4.56343 16.47884,5.7368 27.93444,9.00145 14.87444,3.60566 7.79822,1.99304 21.21556,4.89509 8.67674,1.87491 11.32826,-10.39584 2.65153,-12.27076 v 0 c -12.95604,-2.79687 -6.13949,-1.24721 -20.43778,-4.70083 -10.85797,-3.07157 -15.54109,-4.10203 -26.20379,-8.36945 -4.49918,-1.80066 -8.96692,-3.7098 -13.27059,-5.93762 -4.08374,-2.11399 -7.98101,-4.5781 -11.8486,-7.06556 -9.49515,-6.10697 -11.87557,-8.32922 -20.51472,-15.18522 -7.94731,-6.96642 -16.01398,-13.9398 -22.81558,-22.06979 -4.47115,-7.66876 -15.31642,-1.34563 -10.84528,6.32312 z" />
    <path
       style="fill:#091450;fill-opacity:1;stroke:none;stroke-width:9.96471;stroke-linecap:round"
       id="path21"
       d="m 81.408539,180.22331 c -2.992568,3.56974 -5.518623,7.52982 -7.941576,11.49634 -1.713124,2.8045 -3.407675,5.62194 -5.010842,8.4907 -2.049464,3.6674 -4.084457,7.34663 -5.944648,11.11355 -2.288463,4.63417 -4.330643,9.38594 -6.495965,14.0789 -2.088428,5.61667 -4.427535,11.14636 -6.265266,16.84994 -5.948203,18.46079 -9.930006,37.79697 -9.14229,57.29592 0.251596,6.22778 0.909295,12.47332 2.224929,18.56574 1.271729,5.88897 3.668119,11.47753 5.502198,17.21631 2.800639,5.00988 5.11125,10.32714 8.401995,15.02967 5.965586,8.5249 14.110614,16.26301 22.964864,21.75034 4.18588,2.59416 8.691577,4.70083 13.307858,6.41579 10.966134,4.07395 14.838544,3.62689 26.121124,4.51537 8.85468,0.62879 9.74395,-11.89364 0.88925,-12.52243 v 0 c -9.35148,-0.57669 -12.52018,-0.15625 -21.662371,-3.35078 -3.832959,-1.33941 -7.588303,-2.98931 -11.077149,-5.06622 -7.476996,-4.45097 -14.534295,-10.91096 -19.631053,-17.94843 -2.875657,-3.97065 -4.920766,-8.48106 -7.381159,-12.72158 -1.658985,-4.95417 -3.825342,-9.76644 -4.976956,-14.86248 -1.230753,-5.44632 -1.873609,-11.03668 -2.136162,-16.61415 -0.854218,-18.14638 2.870052,-36.15008 8.366254,-53.33987 1.727421,-5.40259 3.931179,-10.64112 5.896759,-15.96168 2.055187,-4.47132 3.991529,-8.99921 6.165561,-13.41397 1.778358,-3.61134 3.725911,-7.13802 5.686432,-10.65382 3.423418,-6.13915 7.081596,-12.23737 11.349759,-17.83387 6.031151,-6.51354 -3.180434,-15.04285 -9.211546,-8.52929 z" />
    <path
       style="fill:#091450;fill-opacity:1;stroke:none;stroke-width:9.96471;stroke-linecap:round"
       id="path22"
       d="m 139.51939,362.91951 c -1.56961,0.11581 -3.27486,0.0176 -4.75168,-0.58454 -4.78204,-1.95197 -7.87291,-6.28876 -11.08079,-10.06286 -6.63064,-9.53726 -11.19599,-20.21026 -14.53419,-31.30051 -2.83549,-9.42011 -4.10883,-16.77571 -6.05135,-26.34674 -1.77097,-8.69853 -14.072567,-6.194 -12.301592,2.50455 v 0 c 2.101026,10.28877 3.411074,17.88209 6.518698,28.03184 3.859054,12.60389 9.173974,24.67203 16.927284,35.38532 2.10359,2.34551 4.01069,4.88335 6.31076,7.03654 6.11796,5.72729 12.98335,8.74675 21.30295,7.67035 8.72142,-1.65471 6.38131,-13.98864 -2.34009,-12.33395 z" />
    <path
       style="fill:#091450;fill-opacity:1;stroke:none;stroke-width:9.96471;stroke-linecap:round"
       id="path24"
       d="m 239.27824,360.46751 c 6.3654,4.43213 13.84218,6.78865 21.4405,8.02269 1.79762,0.29194 3.61416,0.45227 5.42127,0.67842 1.5566,0.12343 3.11321,0.24716 4.66981,0.37075 8.85005,0.69116 9.82749,-11.82471 0.97744,-12.51584 v 0 c -1.37387,-0.10527 -2.74775,-0.21056 -4.12162,-0.31582 -1.52544,-0.18183 -3.05753,-0.31464 -4.57631,-0.54563 -5.72676,-0.87093 -11.42563,-2.49185 -16.28269,-5.74073 -7.1037,-5.32339 -14.6321,4.72275 -7.5284,10.04616 z" />
    <path
       style="fill:#091450;fill-opacity:1;stroke:none;stroke-width:9.96471;stroke-linecap:round"
       id="path25"
       d="m 272.41672,356.41549 c -0.1709,-0.15253 -0.36638,-0.28126 -0.51245,-0.45764 -0.49233,-0.59442 -0.93822,-1.22593 -1.39639,-1.84707 -0.95072,-1.28886 -1.94377,-2.54877 -2.83013,-3.8827 -2.63141,-3.96015 -3.82625,-6.37782 -6.12492,-10.5906 -4.26309,-7.78634 -15.27463,-1.75742 -11.01153,6.02891 v 0 c 3.9788,7.24473 8.41799,15.90815 15.03296,21.13271 0.85881,0.67831 1.9345,1.02391 2.90177,1.53585 8.4283,2.78648 12.36899,-9.13296 3.94069,-11.91946 z" />
    <path
       style="fill:#182ea0;fill-opacity:1;stroke:none;stroke-width:9.96471;stroke-linecap:round"
       id="path26"
       d="m 95.970763,196.28436 c -3.107643,-0.40817 5.215677,-3.65933 5.262747,-4.15301 0.31295,-3.28523 1.69614,-10.15308 2.34917,-13.56965 1.20284,-6.29298 3.48392,-12.24036 5.14955,-18.43156 1.08796,-4.04407 2.32393,-8.04689 3.4859,-12.07033 5.61532,-17.2476 12.31368,-34.3073 21.78057,-49.84962 5.28314,-8.67363 6.62657,-9.80733 12.79711,-17.3162 3.71898,-3.51822 6.4152,-6.71755 11.01797,-8.97283 0.98228,-0.48131 2.11585,-0.80131 3.20532,-0.70338 0.32944,0.0295 -2.77511,-2.83958 -3.03755,-2.63988 0.45003,2.34502 1.74943,1.60461 0.9383,5.88301 -0.15859,1.41329 -0.31736,2.82656 -0.47604,4.23984 -0.71024,8.84853 11.80348,9.85296 12.51371,1.00443 v 0 c 0.13809,-2.28186 0.27584,-4.56372 0.41374,-6.8456 0.10567,-2.5899 -0.40924,-5.52523 -1.5915,-7.64662 -1.29148,-2.31739 -2.99409,-4.40699 -5.7485,-5.44527 -4.51154,-1.70062 -9.46518,-0.23405 -13.28289,1.77731 -5.73863,3.02344 -9.03303,6.92253 -13.67302,11.40602 -6.80137,8.36753 -8.26179,9.60927 -14.05984,19.18099 -9.91586,16.36954 -16.97892,34.2989 -22.85857,52.44936 -1.204956,4.1845 -2.487055,8.34754 -3.614881,12.55346 -1.712187,6.38513 -3.242367,13.11126 -4.471128,19.62701 -0.70682,3.74804 -1.210675,6.90772 -1.510063,10.62509 -0.06406,0.79409 -0.05703,1.59229 -0.08535,2.38842 0.260815,8.87316 5.757368,17.03633 5.496554,8.16318 z"
       sodipodi:nodetypes="cssscscsscccsscssscscsssccc" />
    <path
       style="fill:#182ea0;fill-opacity:1;stroke:none;stroke-width:9.96471;stroke-linecap:round"
       id="path27"
       d="m 274.87961,194.14711 c 5.37509,-7.06187 12.11123,-13.07898 19.14228,-18.45235 2.58125,-1.97267 5.27597,-3.79224 7.91398,-5.68837 7.26288,-4.61546 9.89444,-6.55666 17.58813,-10.3837 4.30711,-2.14245 10.1159,-4.70939 14.96737,-5.7612 4.5764,-0.99218 4.31133,-7.01771 3.62015,-5.11584 -1.10062,-0.67254 -1.92978,3.96807 -3.17879,3.64605 -0.51365,-0.13242 -0.99969,0.43155 -1.36753,0.81369 -1.00793,1.04713 -1.76457,2.31165 -2.70637,3.41862 -1.10288,1.29635 -2.28293,2.52502 -3.42439,3.78751 -5.91977,6.61494 3.43516,14.98674 9.35492,8.37182 v 0 c 2.41161,-2.71752 6.57114,-7.07189 8.17722,-10.32334 1.15812,-2.34462 2.53168,-4.55398 2.59566,-7.58553 0.0641,-3.03155 -0.32917,-5.26634 -2.2153,-7.05228 -1.88613,-1.78594 -3.53926,-2.75402 -8.01468,-2.7 -4.29945,0.052 -11.02461,1.94103 -14.67417,3.36621 -9.96435,3.89111 -19.19179,9.42084 -28.06227,15.3334 -2.84603,2.05621 -5.75376,4.02962 -8.53811,6.16863 -7.99874,6.1449 -15.61747,13.06076 -21.62762,21.19899 -4.91983,7.38891 5.52967,14.34662 10.44952,6.95769 z"
       sodipodi:nodetypes="cscsscssscssszzsscscc" />
    <path
       style="fill:#ebbe17;fill-opacity:1;stroke:none;stroke-width:7.73242;stroke-linecap:round"
       id="path30"
       d="m 267.11305,265.55096 c 0.46185,0.38741 0.90969,0.79189 1.38554,1.16218 3.28777,2.55844 6.81837,4.79799 10.3547,6.99609 2.10546,1.30872 7.98679,4.85622 10.0952,6.13117 6.31808,3.79436 12.53252,7.78888 18.1988,12.50448 5.30384,4.402 11.57221,-3.0473 6.26839,-7.44929 v 0 c -6.05133,-5.01092 -12.63842,-9.31656 -19.38356,-13.34719 -6.79234,-4.10723 -13.73506,-8.05296 -20.037,-12.89178 -4.90874,-4.83297 -11.79078,2.06138 -6.88207,6.89434 z" />
    <path
       style="fill:#ebbe17;fill-opacity:1;stroke:none;stroke-width:7.73242;stroke-linecap:round"
       id="path31"
       d="m 293.21737,251.7027 c -0.24317,0.60059 -0.50438,1.19427 -0.72949,1.80176 -1.01275,2.73294 -1.95957,5.68112 -2.82654,8.43576 -2.04026,6.48253 -3.93542,13.00777 -5.83119,19.53289 -1.67043,5.77137 -3.26317,11.56308 -4.70734,17.39427 -1.65,6.66622 7.84258,8.98364 9.49256,2.31743 v 0 c 1.41155,-5.70633 2.97372,-11.37267 4.60685,-17.02045 2.76302,-9.51132 5.42841,-19.07849 8.86267,-28.37638 2.90868,-6.22726 -5.95885,-10.31254 -8.86752,-4.08528 z" />
    <path
       style="fill:#091450;fill-opacity:1;stroke:none;stroke-width:9.96471;stroke-linecap:round"
       id="path32"
       d="m 144.41653,158.46221 c 5.23083,-1.26269 10.60927,-2.09429 15.98805,-2.35417 3.38416,-0.16347 6.7901,-0.40683 10.16389,-0.0955 4.45429,0.41099 8.88589,1.18283 13.22895,2.25396 5.01579,1.23704 9.85517,3.10303 14.78275,4.65454 12.46923,6.31077 16.7819,7.48715 27.3542,16.85073 8.01141,7.0955 13.95425,14.95327 19.30791,24.15977 5.46203,9.39283 7.2096,15.07403 11.00543,24.99115 3.19138,8.2835 14.90601,3.77022 11.71462,-4.51326 v 0 c -4.25018,-10.96617 -6.16156,-17.14429 -12.33501,-27.53146 -6.22826,-10.47942 -13.03488,-19.22162 -22.29062,-27.24562 -12.04602,-10.44292 -16.90045,-11.71809 -31.03327,-18.70045 -5.49484,-1.68518 -10.88868,-3.74409 -16.48449,-5.05555 -5.05893,-1.18562 -10.22199,-1.97884 -15.39949,-2.4169 -3.74888,-0.31718 -7.52858,-0.0383 -11.28566,0.15918 -6.32841,0.33251 -12.65733,1.34239 -18.77967,2.96515 -8.39938,2.87257 -4.33695,14.75105 4.06241,11.87849 z" />
    <path
       style="fill:#182ea0;fill-opacity:1;stroke-width:29.2962;stroke-linecap:round"
       id="path1"
       d="m 153.19133,306.7462 c 1.64349,1.73358 3.47367,3.29839 5.42853,4.67189 0.79113,0.55585 1.58998,1.1041 2.42477,1.59194 0.96136,0.56178 1.97155,1.03548 2.95731,1.55322 4.29215,1.65676 2.18134,0.95031 6.32064,2.15452 9.03856,2.56469 12.6656,-10.21777 3.62702,-12.78248 v 0 c -2.64558,-0.72227 -1.34893,-0.32104 -3.89149,-1.19868 -0.59454,-0.2915 -1.20612,-0.55052 -1.78361,-0.87451 -1.85138,-1.03867 -3.5093,-2.39547 -5.05791,-3.83603 -6.16607,-7.08894 -16.19135,1.6312 -10.02526,8.72013 z" />
  </g>
  <g
     inkscape:groupmode="layer"
     id="layer3"
     inkscape:label="Text">
    <g
       id="text1-7"
       style="font-size:152.16px;line-height:1.3;font-family:'Reem Kufi';-inkscape-font-specification:'Reem Kufi, Normal';fill:#091450;stroke-width:47.5501;stroke-linecap:round"
       aria-label="Talking Magic Equines">
      <path
         d="m 366.78982,225.78083 h 73.49329 v 15.36816 h -29.21473 v 94.94784 h -15.9768 v -94.94784 h -28.30176 z m 103.46878,111.8376 q -8.97744,0 -16.28112,-3.804 -7.30368,-3.804 -11.56416,-11.10768 -4.26048,-7.45584 -4.26048,-18.41136 0,-10.6512 4.41264,-18.2592 4.5648,-7.76016 11.86848,-11.86848 7.45584,-4.26048 16.12896,-4.26048 8.82528,0 14.60736,3.65184 5.78208,3.49968 9.1296,8.52096 l 1.06512,-9.58608 h 14.15088 v 63.60288 h -15.36816 v -10.04256 q -1.67376,2.13024 -5.02128,4.86912 -3.34752,2.73888 -8.06448,4.71696 -4.71696,1.97808 -10.80336,1.97808 z m 4.10832,-12.62928 q 7.608,0 12.78144,-3.95616 5.3256,-4.10832 6.99936,-11.10768 v -13.08576 q -1.82592,-6.23856 -7.45584,-10.34688 -5.47776,-4.10832 -12.78144,-4.10832 -5.47776,0 -10.04256,2.73888 -4.5648,2.58672 -7.30368,7.45584 -2.73888,4.71696 -2.73888,10.95552 0,6.0864 2.73888,10.95552 2.89104,4.86912 7.608,7.76016 4.71696,2.73888 10.19472,2.73888 z m 59.19019,-107.12064 h 15.36816 v 118.22832 h -15.36816 z m 39.40954,118.22832 V 217.86851 h 15.36817 v 78.81888 l 32.41008,-25.56288 9.28176,8.21664 -23.28048,18.56352 26.32368,38.19216 h -17.95488 l -18.86784,-29.82336 -7.91232,6.23856 v 23.5848 z m 76.99305,-63.60288 h 15.36816 v 63.60288 H 649.9597 Z m -0.7608,-22.824 q 0,-3.49968 2.73888,-5.93424 2.89104,-2.43456 6.23856,-2.43456 3.34752,0 6.0864,2.43456 2.73888,2.43456 2.73888,5.93424 0,3.804 -2.73888,6.0864 -2.73888,2.2824 -6.0864,2.2824 -3.34752,0 -6.23856,-2.2824 -2.73888,-2.2824 -2.73888,-6.0864 z m 54.01693,22.824 1.06512,11.86848 q 3.19536,-6.54288 9.8904,-10.34688 6.69504,-3.95616 15.52032,-3.95616 8.97744,0 14.75952,5.3256 5.78208,5.17344 5.93424,13.6944 v 47.01744 h -15.36816 v -41.69184 q -0.15216,-4.86912 -2.89104,-7.91232 -2.73888,-3.19536 -8.52096,-3.34752 -8.06448,0 -13.54224,6.69504 -5.3256,6.69504 -5.3256,17.19408 v 29.06256 h -15.36816 v -63.60288 z m 102.40359,95.25216 q -10.95552,0 -17.95488,-3.804 -6.99936,-3.804 -12.9336,-8.97744 l 9.1296,-10.49904 q 4.71696,4.5648 9.73824,7.15152 5.17344,2.58672 11.71632,2.58672 10.34688,0 15.9768,-4.86912 5.62992,-4.86912 5.78208,-13.08576 v -11.56416 q -3.19536,5.62992 -9.8904,9.28176 -6.54288,3.65184 -15.82464,3.65184 -8.82528,0 -16.12896,-4.41264 -7.30368,-4.41264 -11.71632,-12.02064 -4.41264,-7.608 -4.41264,-17.19408 0,-9.8904 4.5648,-17.4984 4.71696,-7.76016 12.32496,-12.1728 7.608,-4.41264 16.28112,-4.41264 8.21664,0 14.91168,3.0432 6.69504,3.0432 10.04256,7.91232 l 1.06512,-8.3688 h 14.15088 v 64.05936 q 0,8.67312 -4.5648,15.67248 -4.5648,7.15152 -12.78144,11.25984 -8.21664,4.26048 -19.47648,4.26048 z m -20.99808,-64.21152 q 0,6.0864 2.73888,10.95552 2.89104,4.86912 7.608,7.76016 4.86912,2.73888 10.80336,2.73888 8.06448,0 13.6944,-4.10832 5.62992,-4.26048 7.608,-10.80336 v -13.08576 q -1.97808,-6.54288 -7.76016,-10.49904 -5.78208,-4.10832 -13.54224,-4.10832 -5.93424,0 -10.80336,2.73888 -4.71696,2.73888 -7.608,7.45584 -2.73888,4.71696 -2.73888,10.95552 z"
         id="path52" />
      <path
         d="M 889.91595,336.09683 V 222.12899 h 0.15216 l 54.47328,77.44944 55.38624,-77.44944 h 0.30437 v 113.96784 h -15.82469 v -68.472 l -39.86592,56.60352 h -0.30432 l -38.95296,-54.16896 v 66.03744 z m 164.48505,1.5216 c -5.985,0 -11.4121,-1.268 -16.2812,-3.804 -4.8691,-2.536 -8.7238,-6.23856 -11.5641,-11.10768 -2.8403,-4.97056 -4.2605,-11.10768 -4.2605,-18.41136 0,-7.1008 1.4709,-13.1872 4.4126,-18.2592 3.0432,-5.17344 6.9994,-9.1296 11.8685,-11.86848 4.9706,-2.84032 10.3469,-4.26048 16.129,-4.26048 5.8835,0 10.7526,1.21728 14.6073,3.65184 3.8547,2.33312 6.8979,5.17344 9.1296,8.52096 l 1.0652,-9.58608 h 14.1508 v 63.60288 h -15.3681 v -10.04256 c -1.1159,1.42016 -2.7896,3.0432 -5.0213,4.86912 -2.2317,1.82592 -4.9198,3.39824 -8.0645,4.71696 -3.1446,1.31872 -6.7457,1.97808 -10.8033,1.97808 z m 4.1083,-12.62928 c 5.072,0 9.3325,-1.31872 12.7814,-3.95616 3.5504,-2.73888 5.8835,-6.44144 6.9994,-11.10768 v -13.08576 c -1.2173,-4.15904 -3.7026,-7.608 -7.4559,-10.34688 -3.6518,-2.73888 -7.9123,-4.10832 -12.7814,-4.10832 -3.6519,0 -6.9994,0.91296 -10.0426,2.73888 -3.0432,1.72448 -5.4777,4.20976 -7.3036,7.45584 -1.8259,3.14464 -2.7389,6.79648 -2.7389,10.95552 0,4.0576 0.913,7.70944 2.7389,10.95552 1.9273,3.24608 4.4633,5.8328 7.608,7.76016 3.1446,1.82592 6.5428,2.73888 10.1947,2.73888 z m 90.2308,42.75696 c -7.3037,0 -13.2886,-1.268 -17.9549,-3.804 -4.6662,-2.536 -8.9774,-5.52848 -12.9336,-8.97744 l 9.1296,-10.49904 c 3.1447,3.0432 6.3908,5.42704 9.7383,7.15152 3.4489,1.72448 7.3544,2.58672 11.7163,2.58672 6.8979,0 12.2235,-1.62304 15.9768,-4.86912 3.7533,-3.24608 5.6806,-7.608 5.7821,-13.08576 v -11.56416 c -2.1303,3.75328 -5.4271,6.8472 -9.8904,9.28176 -4.3619,2.43456 -9.6368,3.65184 -15.8247,3.65184 -5.8835,0 -11.2598,-1.47088 -16.1289,-4.41264 -4.8691,-2.94176 -8.7746,-6.94864 -11.7163,-12.02064 -2.9418,-5.072 -4.4127,-10.80336 -4.4127,-17.19408 0,-6.5936 1.5216,-12.4264 4.5648,-17.4984 3.1447,-5.17344 7.253,-9.23104 12.325,-12.1728 5.072,-2.94176 10.499,-4.41264 16.2811,-4.41264 5.4777,0 10.4483,1.0144 14.9117,3.0432 4.4633,2.0288 7.8108,4.66624 10.0425,7.91232 l 1.0652,-8.3688 h 14.1508 v 64.05936 c 0,5.78208 -1.5216,11.00624 -4.5648,15.67248 -3.0432,4.76768 -7.3037,8.52096 -12.7814,11.25984 -5.4777,2.84032 -11.9699,4.26048 -19.4765,4.26048 z m -20.9981,-64.21152 c 0,4.0576 0.913,7.70944 2.7389,10.95552 1.9274,3.24608 4.4634,5.8328 7.608,7.76016 3.2461,1.82592 6.8472,2.73888 10.8034,2.73888 5.3763,0 9.9411,-1.36944 13.6944,-4.10832 3.7533,-2.84032 6.2893,-6.44144 7.608,-10.80336 v -13.08576 c -1.3187,-4.36192 -3.9055,-7.8616 -7.7602,-10.49904 -3.8547,-2.73888 -8.3688,-4.10832 -13.5422,-4.10832 -3.9562,0 -7.5573,0.91296 -10.8034,2.73888 -3.1446,1.82592 -5.6806,4.3112 -7.608,7.45584 -1.8259,3.14464 -2.7389,6.79648 -2.7389,10.95552 z m 81.8621,-31.04064 h 15.3682 v 63.60288 h -15.3682 z m 91.4483,57.66864 c -2.8403,2.33312 -6.2893,4.15904 -10.3469,5.47776 -3.9561,1.31872 -7.963,1.97808 -12.0206,1.97808 -6.8979,0 -13.0351,-1.36944 -18.4114,-4.10832 -5.2749,-2.73888 -9.3832,-6.5936 -12.3249,-11.56416 -2.9418,-4.97056 -4.4127,-10.85408 -4.4127,-17.65056 0,-6.89792 1.5723,-12.83216 4.717,-17.80272 3.1446,-4.97056 7.2529,-8.77456 12.3249,-11.412 5.1735,-2.73888 10.702,-4.10832 16.5855,-4.10832 5.2749,0 9.8904,0.71008 13.8465,2.13024 4.0576,1.42016 7.5573,3.39824 10.4991,5.93424 l -7.608,9.8904 c -1.7245,-1.42016 -3.9054,-2.68816 -6.5429,-3.804 -2.6375,-1.11584 -5.5792,-1.67376 -8.8253,-1.67376 -3.6518,0 -6.9993,0.91296 -10.0425,2.73888 -2.9418,1.82592 -5.2749,4.3112 -6.9994,7.45584 -1.7245,3.14464 -2.5867,6.69504 -2.5867,10.6512 0,3.85472 0.8622,7.3544 2.5867,10.49904 1.8259,3.14464 4.3112,5.62992 7.4558,7.45584 3.2461,1.82592 6.898,2.73888 10.9556,2.73888 2.6374,0 5.0719,-0.40576 7.3036,-1.21728 2.3331,-0.81152 4.3619,-1.87664 6.0864,-3.19536 z"
         id="path53"
         sodipodi:nodetypes="ccccccccccccccsscsccscccccccssssccccsccsccssscccsscccsssscssscccsccssccsccccsccscccccccscssscscccsscssccsccc" />
      <path
         d="m 1342.4396,225.78083 h 72.276 v 15.36816 h -56.4513 v 31.80144 h 50.3649 v 15.36816 h -50.3649 v 32.41008 h 58.5816 v 15.36816 h -74.4063 z m 121.576,111.8376 q -8.3688,0 -15.5203,-3.95616 -6.9994,-4.10832 -11.2599,-11.56416 -4.2605,-7.608 -4.2605,-17.80272 0,-10.49904 4.5648,-18.10704 4.5648,-7.76016 12.1728,-12.02064 7.7602,-4.26048 16.7376,-4.26048 7.608,0 13.5423,2.89104 5.9342,2.89104 9.8904,7.608 v -8.97744 h 15.5203 v 95.25216 h -15.3682 v -39.40944 q -3.9561,4.5648 -10.8033,7.45584 -6.6951,2.89104 -15.216,2.89104 z m 5.1734,-12.1728 q 7.9123,0 13.5423,-4.26048 5.782,-4.41264 7.1515,-11.25984 v -11.56416 q -1.8259,-6.99936 -7.3037,-11.25984 -5.3256,-4.26048 -13.3901,-4.26048 -5.4777,0 -10.1947,2.89104 -4.717,2.89104 -7.608,7.76016 -2.7389,4.71696 -2.7389,10.80336 0,5.93424 2.7389,10.80336 2.891,4.71696 7.608,7.608 4.717,2.73888 10.1947,2.73888 z m 80.6447,13.23792 q -8.8253,0 -14.4552,-5.3256 -5.6299,-5.3256 -5.9342,-13.6944 v -47.1696 h 15.3681 v 41.69184 q 0.3044,5.02128 2.8911,8.06448 2.5867,3.0432 8.2166,3.34752 5.1735,0 9.2818,-3.0432 4.1083,-3.19536 6.3907,-8.67312 2.4346,-5.47776 2.4346,-12.32496 v -29.06256 h 15.3681 v 63.60288 h -13.8465 l -0.913,-11.71632 q -3.1954,6.23856 -9.8904,10.34688 -6.5429,3.95616 -14.9117,3.95616 z m 63.755,-66.1896 h 15.3682 v 63.60288 h -15.3682 z m -0.7608,-22.824 q 0,-3.49968 2.7389,-5.93424 2.891,-2.43456 6.2385,-2.43456 3.3476,0 6.0864,2.43456 2.7389,2.43456 2.7389,5.93424 0,3.804 -2.7389,6.0864 -2.7388,2.2824 -6.0864,2.2824 -3.3475,0 -6.2385,-2.2824 -2.7389,-2.2824 -2.7389,-6.0864 z m 54.017,22.824 1.0651,11.86848 q 3.1954,-6.54288 9.8904,-10.34688 6.6951,-3.95616 15.5204,-3.95616 8.9774,0 14.7595,5.3256 5.7821,5.17344 5.9342,13.6944 v 47.01744 h -15.3681 v -41.69184 q -0.1522,-4.86912 -2.8911,-7.91232 -2.7389,-3.19536 -8.5209,-3.34752 -8.0645,0 -13.5423,6.69504 -5.3256,6.69504 -5.3256,17.19408 v 29.06256 h -15.3681 v -63.60288 z m 101.1863,65.12448 q -10.9555,0 -18.8678,-4.26048 -7.9124,-4.41264 -12.1728,-12.02064 -4.2605,-7.76016 -4.2605,-17.4984 0,-9.43392 4.7169,-17.04192 4.8692,-7.76016 12.9336,-12.32496 8.0645,-4.5648 17.9549,-4.5648 12.7815,0 21.1503,7.45584 8.5209,7.30368 11.412,20.69376 l -49.7564,17.19408 q 2.7389,4.41264 7.1516,6.8472 4.5648,2.43456 10.0425,2.43456 4.1083,0 7.9123,-1.36944 3.804,-1.5216 7.1516,-3.95616 l 6.9993,11.412 q -4.8691,3.19536 -10.8033,5.17344 -5.7821,1.82592 -11.5642,1.82592 z m -19.933,-31.49712 35.4533,-12.9336 q -1.9781,-4.41264 -5.9342,-7.76016 -3.804,-3.34752 -10.3469,-3.34752 -8.521,0 -13.9987,5.93424 -5.3256,5.78208 -5.3256,14.91168 0,1.67376 0.1521,3.19536 z m 88.4049,31.34496 q -6.9994,0 -13.3901,-2.43456 -6.3907,-2.58672 -10.8033,-7.30368 l 6.5428,-8.82528 q 3.9562,3.804 8.2167,5.78208 4.4126,1.97808 8.2166,1.97808 4.4127,0 7.7602,-1.67376 3.3475,-1.82592 3.3475,-5.93424 0,-3.34752 -2.2824,-5.17344 -2.1302,-1.82592 -5.4778,-3.0432 -3.3475,-1.21728 -7.1515,-2.2824 -16.2811,-5.3256 -16.2811,-18.71568 0,-5.02128 2.4346,-9.43392 2.5867,-4.5648 7.7601,-7.30368 5.1735,-2.89104 12.7815,-2.89104 6.695,0 12.0206,1.67376 5.3256,1.5216 9.8904,5.3256 l -5.9342,9.28176 q -2.7389,-2.73888 -6.5429,-4.10832 -3.6519,-1.5216 -6.6951,-1.67376 -4.1083,0 -7.1515,1.97808 -3.0432,1.82592 -3.0432,5.02128 -0.1521,4.26048 3.4997,6.23856 3.6518,1.82592 8.3688,3.34752 0.6086,0.15216 1.2173,0.45648 0.7608,0.15216 1.5216,0.45648 6.9993,2.2824 11.5641,6.23856 4.717,3.95616 4.717,11.56416 0,5.78208 -2.7389,10.6512 -2.7389,4.86912 -8.3688,7.91232 -5.4777,2.89104 -13.9987,2.89104 z"
         id="path54" />
    </g>
    <path
       d="m 475.57283,381.31972 c -2.46583,-2.12335 -5.89058,-3.21927 -10.13728,-3.21927 -10.06878,0.20549 -16.43882,5.47961 -17.53474,14.52096 l -0.27398,1.91787 v -0.0685 l -5.47961,0.0685 -0.27398,2.46582 c -0.0685,0.82194 0.34247,1.30141 1.43839,1.57539 l 3.76723,0.47946 -3.90422,31.98722 c -0.41097,3.49325 -1.84936,5.27412 -5.61659,5.27412 h -1.30141 c -0.61646,0 -1.02743,0.20548 -1.16442,0.68495 l -0.68495,3.28777 c 1.16442,0.47946 2.53432,0.68495 4.10971,0.68495 6.50703,0 10.00028,-3.97272 10.75373,-9.8633 1.3014,-10.75373 2.60281,-21.43897 3.90422,-32.1927 h 14.72645 l -3.63024,29.58989 h 11.02771 l 0.34247,-2.94529 c 0.0685,-0.68495 -0.20548,-1.09592 -0.89043,-1.23291 l -3.76723,-0.82194 3.56174,-28.97343 h -20.9595 l 0.20548,-1.78088 c 0.41098,-3.35626 1.64389,-5.89057 3.69874,-7.60295 2.39733,-1.98636 7.19199,-3.15078 11.2332,-1.64388 -1.30141,3.01378 0.61645,5.75358 3.90422,5.75358 3.21927,0 6.37004,-5.27412 2.94529,-7.94543 z m 13.15103,12.53461 h -8.4249 l -0.34248,2.94529 c -0.0685,0.68495 0.13699,1.09592 0.82194,1.23291 0.41098,0.0685 1.71238,0.41097 3.83573,0.82194 l -3.63024,29.65838 h 6.09606 l 2.67131,-22.05542 c 2.53432,-4.79466 5.82209,-7.26049 9.7948,-7.26049 1.16442,0 2.12335,0.13699 2.73981,0.34248 0.61645,0.20549 1.23291,0.34248 1.64388,0.34248 0.41097,0 0.75345,-0.34248 0.95893,-0.89044 l 1.3699,-4.58917 c -1.3014,-0.82194 -2.8083,-1.16442 -4.58917,-1.16442 -4.52068,0 -8.3564,2.53432 -11.50718,7.67145 l 0.20549,-5.41111 c 0,-1.23291 -0.34248,-1.64388 -1.64388,-1.64388 z m 34.38455,-0.54796 c -4.2467,0 -7.60296,0.95893 -10.13728,3.01378 -2.39733,1.84937 -3.69873,4.1782 -4.04121,6.9865 -0.34247,2.67131 0.27398,4.86315 1.98636,6.43854 0.75345,0.68495 1.78087,1.30141 2.94529,1.84937 1.16442,0.54796 3.21927,1.23291 6.09606,2.19184 1.02743,0.34248 1.91787,0.75345 2.73981,1.16442 0.82194,0.41097 1.43839,1.02742 1.84936,1.64388 0.41098,0.61646 0.54797,1.57539 0.41098,2.87679 -0.13699,1.30141 -0.89044,2.46583 -2.19185,3.49325 -1.4384,1.16442 -3.28776,1.71238 -5.5481,1.71238 -2.73981,0 -5.00014,-0.47946 -6.84951,-1.3699 0.13699,-2.7398 0.13699,-4.1782 0.13699,-4.38369 -0.0685,-0.54796 -0.41097,-0.82194 -0.95893,-0.82194 h -2.39733 l -1.09592,9.04136 c 3.56174,1.3014 7.19198,1.84936 10.95921,1.84936 3.76723,0 6.91801,-1.02742 9.52082,-3.15077 2.53432,-1.98636 3.97272,-4.65767 4.38369,-7.94543 0.34247,-2.53432 -0.34248,-4.58917 -2.05485,-6.09607 -0.75345,-0.68495 -1.64389,-1.23291 -2.67131,-1.71237 -1.02743,-0.47947 -2.05486,-0.82195 -3.15078,-1.23292 -1.09592,-0.34247 -2.46582,-0.82194 -4.1097,-1.3699 -1.64389,-0.54796 -2.8768,-1.30141 -3.63024,-2.39733 -0.47947,-0.61645 -0.61646,-1.50689 -0.47947,-2.67131 0.13699,-1.16441 0.89044,-2.19184 2.19184,-3.15077 1.30141,-0.95893 3.01379,-1.4384 4.93165,-1.4384 h 0.0685 c 1.50689,0 3.21927,0.20549 5.20562,0.68495 -0.13699,2.8768 -0.13699,4.45218 -0.13699,4.52068 0.0685,0.61646 0.41097,0.95893 1.09593,0.95893 h 2.6713 l 0.82195,-6.50703 0.27398,-2.39733 c -3.49325,-1.23291 -6.43854,-1.78087 -8.83587,-1.78087 z m 22.26091,35.75444 c 1.57539,0 3.08228,-0.27398 4.65767,-0.82194 1.57539,-0.54796 2.94529,-1.3699 4.1097,-2.32884 l -1.43839,-2.87679 c -0.20549,-0.41097 -0.41097,-0.61646 -0.75345,-0.61646 -0.20548,0 -0.41097,0.13699 -0.68495,0.27398 -0.27398,0.13699 -0.61646,0.34248 -0.95893,0.54797 -0.34248,0.20548 -0.82194,0.41097 -1.30141,0.54796 -0.47946,0.13699 -1.02743,0.27398 -1.64388,0.27398 -1.09592,0 -1.98636,-0.34248 -2.60282,-1.02743 -0.61645,-0.68495 -0.89043,-1.84937 -0.68495,-3.28777 l 2.53432,-20.82251 h 9.93179 l 0.54796,-4.38368 h -9.93179 l 1.5069,-11.98665 h -3.08228 c -0.41097,0 -0.75345,0.13699 -1.02743,0.34248 -0.27398,0.20549 -0.47947,0.47947 -0.54796,0.82194 l -2.73981,10.68524 -5.75358,0.75344 -0.27398,2.39733 c -0.0685,0.47947 0,0.82194 0.20548,1.02743 0.20549,0.20548 0.54796,0.34247 0.89044,0.34247 h 4.1782 l -2.60282,21.23349 c -0.34247,2.87679 0.13699,5.06863 1.4384,6.57553 1.30141,1.50689 3.28777,2.32883 6.02757,2.32883 z m 53.22071,-6.9865 -1.50689,-1.84937 c -0.34247,-0.41097 -0.75344,-0.54796 -1.16441,-0.54796 -0.34248,0 -0.75345,0.13699 -1.09593,0.34248 -0.89043,0.54796 -1.71237,1.23291 -2.60281,1.91786 -1.71238,1.30141 -3.97272,2.26034 -6.9865,2.26034 -5.6166,0 -8.01393,-3.56175 -8.01393,-9.38383 v -0.75345 -0.75344 c 4.52068,-0.47947 8.21941,-1.02743 11.09621,-1.78088 2.87679,-0.75344 5.13713,-1.64388 6.78101,-2.67131 2.73981,-1.64388 4.3152,-3.76723 4.3152,-7.60295 0,-0.82194 -0.20549,-1.71238 -0.61646,-2.67131 -1.3699,-3.21927 -4.79466,-5.20563 -9.52082,-5.20563 -6.23305,0 -10.41126,3.08228 -13.15106,6.71252 -2.7398,3.63024 -4.86315,8.63038 -4.86315,14.86344 0,2.12335 0.27398,4.1097 0.89043,5.82208 1.64389,4.86315 5.41112,8.21941 11.84966,8.21941 7.05499,0 11.02771,-3.21927 14.58945,-6.918 z m -4.65766,-20.54853 c 0,2.32883 -1.02743,3.42475 -2.8083,4.45218 -1.16442,0.61646 -2.73981,1.23291 -4.86315,1.78087 -2.12335,0.54796 -5.00015,1.09592 -8.4934,1.50689 0.34248,-1.64388 0.89044,-3.15077 1.57539,-4.52067 1.64388,-3.56175 4.58917,-6.9865 9.58931,-6.9865 2.67131,0 5.00015,1.23291 5.00015,3.76723 z m 24.58978,-8.3564 c -4.58917,0 -8.49339,1.71237 -11.64417,5.20562 -3.08228,3.35626 -5.00014,7.60296 -5.61659,12.87708 -0.68496,5.6851 0,10.13728 1.98635,13.21956 1.91787,3.01378 4.93165,4.52067 8.97286,4.52067 4.52068,0 8.63038,-1.98635 12.39762,-5.95907 v 4.2467 c 0.13699,0.82194 0.61645,1.23291 1.50689,1.23291 h 8.56189 l 0.34247,-2.94529 c 0.0685,-0.68495 -0.13699,-1.16442 -0.82194,-1.30141 -0.41097,-0.0685 -1.71238,-0.34247 -3.83573,-0.75344 l 5.6166,-45.48075 h -11.71266 l -0.41097,2.94529 c -0.0685,0.68495 0.20548,1.16441 0.89044,1.3014 0.68495,0.13699 2.26033,0.41097 4.52067,0.75345 l -1.78087,14.24698 c -2.12335,-2.7398 -5.13713,-4.1097 -8.97286,-4.1097 z m -3.63024,30.89129 c -1.4384,0 -2.67131,-0.27398 -3.69873,-0.75345 -3.21927,-1.50689 -4.45219,-5.47961 -3.63025,-12.05514 0.54797,-4.24669 1.84937,-7.53446 3.83573,-9.86329 1.98636,-2.32884 4.72616,-3.42476 8.01393,-3.42476 3.28776,0 5.89058,1.3699 7.53446,4.10971 l -2.12335,16.7128 c -3.08228,3.49325 -6.30155,5.27413 -9.93179,5.27413 z m 36.30245,0.20548 c -0.61645,-0.13699 -3.83572,-0.75344 -3.83572,-0.75344 l 3.69873,-29.65838 h -11.0962 l -0.34248,2.94529 c -0.0685,0.61645 0.27398,1.09592 0.89044,1.23291 0.61645,0.13699 3.83572,0.75344 3.83572,0.75344 l -3.08228,24.72674 -0.61645,5.00014 h 11.0962 l 0.34248,-2.94529 c 0.0685,-0.61646 -0.27398,-1.16442 -0.89044,-1.30141 z m 2.39733,-43.01492 c -0.20548,-0.54796 -0.47946,-1.02743 -0.82194,-1.4384 -0.34248,-0.41097 -0.75345,-0.68495 -1.23291,-0.89044 -0.47947,-0.20548 -1.02743,-0.34247 -1.64388,-0.34247 -0.61646,0 -1.16442,0.13699 -1.71238,0.34247 -0.54796,0.20549 -1.02743,0.47947 -1.50689,0.89044 -0.47947,0.41097 -0.82195,0.89044 -1.09593,1.4384 -0.27398,0.54796 -0.47946,1.09592 -0.54796,1.71238 -0.0685,0.61645 0,1.16441 0.13699,1.64388 0.13699,0.47946 0.41097,0.95893 0.75345,1.3699 0.34248,0.41097 0.82194,0.75345 1.30141,0.95893 0.47946,0.20549 0.95893,0.34248 1.57538,0.34248 0.61646,0 1.16442,-0.13699 1.71238,-0.34248 0.54796,-0.20548 1.02743,-0.54796 1.50689,-0.95893 0.47947,-0.41097 0.89044,-0.82194 1.16442,-1.3699 0.27398,-0.54796 0.47947,-1.02743 0.54796,-1.64388 0.0685,-0.61646 0.0685,-1.16442 -0.13699,-1.71238 z m 12.32915,47.80958 c 1.57539,0 3.08228,-0.27398 4.65767,-0.82194 1.57539,-0.54796 2.94529,-1.3699 4.10971,-2.32884 l -1.4384,-2.87679 c -0.20549,-0.41097 -0.41097,-0.61646 -0.75345,-0.61646 -0.20548,0 -0.41097,0.13699 -0.68495,0.27398 -0.27398,0.13699 -0.61646,0.34248 -0.95893,0.54797 -0.34248,0.20548 -0.82194,0.41097 -1.30141,0.54796 -0.47946,0.13699 -1.02742,0.27398 -1.64388,0.27398 -1.09592,0 -1.98636,-0.34248 -2.60281,-1.02743 -0.61646,-0.68495 -0.89044,-1.84937 -0.68495,-3.28777 l 2.53431,-20.82251 h 9.93179 l 0.54796,-4.38368 h -9.93179 l 1.5069,-11.98665 h -3.08228 c -0.41097,0 -0.75345,0.13699 -1.02743,0.34248 -0.27398,0.20549 -0.47946,0.47947 -0.54796,0.82194 l -2.7398,10.68524 -5.75359,0.75344 -0.27398,2.39733 c -0.0685,0.47947 0,0.82194 0.20548,1.02743 0.20549,0.20548 0.54796,0.34247 0.89044,0.34247 h 4.1782 l -2.60281,21.23349 c -0.34248,2.87679 0.13699,5.06863 1.43839,6.57553 1.30141,1.50689 3.28777,2.32883 6.02757,2.32883 z m 28.15156,-4.79466 c -0.61646,-0.13699 -3.83573,-0.75344 -3.83573,-0.75344 l 3.69874,-29.65838 H 682.8392 l -0.34247,2.94529 c -0.0685,0.61645 0.27398,1.09592 0.89043,1.23291 0.61646,0.13699 3.83573,0.75344 3.83573,0.75344 l -3.08228,24.72674 -0.61646,5.00014 h 11.09621 l 0.34248,-2.94529 c 0.0685,-0.61646 -0.27399,-1.16442 -0.89044,-1.30141 z m 2.39733,-43.01492 c -0.20549,-0.54796 -0.47947,-1.02743 -0.82194,-1.4384 -0.34248,-0.41097 -0.75345,-0.68495 -1.23292,-0.89044 -0.47946,-0.20548 -1.02742,-0.34247 -1.64388,-0.34247 -0.61645,0 -1.16441,0.13699 -1.71238,0.34247 -0.54796,0.20549 -1.02742,0.47947 -1.50689,0.89044 -0.47946,0.41097 -0.82194,0.89044 -1.09592,1.4384 -0.27398,0.54796 -0.47947,1.09592 -0.54796,1.71238 -0.0685,0.61645 0,1.16441 0.13699,1.64388 0.13699,0.47946 0.41097,0.95893 0.75345,1.3699 0.34247,0.41097 0.82194,0.75345 1.3014,0.95893 0.47947,0.20549 0.95893,0.34248 1.57539,0.34248 0.61646,0 1.16442,-0.13699 1.71238,-0.34248 0.54796,-0.20548 1.02742,-0.54796 1.50689,-0.95893 0.47947,-0.41097 0.89044,-0.82194 1.16442,-1.3699 0.27398,-0.54796 0.47946,-1.02743 0.54796,-1.64388 0.0685,-0.61646 0.0685,-1.16442 -0.13699,-1.71238 z m 20.75403,12.05514 c -2.53432,0 -4.86315,0.41097 -6.9865,1.23291 -2.12335,0.82194 -4.04121,1.98636 -5.68509,3.56174 -1.64389,1.57539 -2.94529,3.49325 -3.97272,5.6851 -1.02743,2.19184 -1.78087,4.58917 -2.12335,7.32897 -0.34247,2.73981 -0.20548,5.20563 0.27398,7.39747 0.47947,2.19185 1.4384,4.04121 2.67131,5.6166 1.23291,1.57539 2.8083,2.8083 4.72616,3.63024 1.91787,0.82194 4.17821,1.23291 6.71252,1.23291 2.53432,0 4.93165,-0.41097 7.055,-1.23291 2.12335,-0.82194 3.97272,-2.05485 5.6166,-3.63024 1.64388,-1.57539 2.94529,-3.42475 3.97271,-5.6166 1.02743,-2.19184 1.71238,-4.65766 2.05486,-7.39747 0.34247,-2.7398 0.27398,-5.13713 -0.20549,-7.32897 -0.47946,-2.19185 -1.3699,-4.10971 -2.60281,-5.6851 -1.23291,-1.57538 -2.8768,-2.7398 -4.79466,-3.56174 -1.91786,-0.82194 -4.1782,-1.23291 -6.71252,-1.23291 z m -3.76723,30.89129 c -1.71238,0 -3.15077,-0.27398 -4.38369,-0.89044 -1.23291,-0.61646 -2.19184,-1.4384 -2.94529,-2.53432 -0.75344,-1.09592 -1.16441,-2.39733 -1.3699,-4.04121 -0.20548,-1.64388 -0.27398,-3.49325 0,-5.5481 0.27398,-2.05486 0.75345,-3.90422 1.3699,-5.54811 0.61646,-1.64388 1.36991,-3.01378 2.39733,-4.1097 1.02743,-1.09592 2.12335,-1.98636 3.49325,-2.60282 1.36991,-0.61645 2.94529,-0.89043 4.65767,-0.89043 3.42476,0 5.82208,1.16441 7.26048,3.49325 1.4384,2.32883 1.78087,5.5481 1.30141,9.65781 -0.47947,4.1097 -1.71238,7.26048 -3.69874,9.58931 -1.98636,2.32883 -4.65766,3.42476 -8.08242,3.42476 z m 55.68658,0.13699 c -0.41097,-0.0685 -1.64388,-0.41097 -3.83572,-0.82194 l 2.12334,-17.12378 c 0.95894,-7.94543 -2.46582,-13.15106 -10.00028,-13.15106 -4.31519,0 -8.3564,1.91786 -12.19213,5.6166 v -3.76723 c -0.13699,-0.82194 -0.61645,-1.30141 -1.50689,-1.30141 h -8.56189 l -0.34247,2.94529 c -0.0685,0.68495 0.13699,1.16442 0.82194,1.30141 0.41097,0.0685 1.71237,0.34247 3.83572,0.75344 l -3.63024,29.72688 h 6.09607 l 3.15077,-25.54868 c 3.28777,-3.21926 6.57553,-4.86315 9.93179,-4.86315 4.86315,0 6.9865,2.8083 6.30155,8.35641 l -2.7398,22.05542 h 11.0962 l 0.34248,-2.94529 c 0.0685,-0.68495 -0.20549,-1.09592 -0.89044,-1.23291 z m 7.19194,-0.0685 c -0.0685,0.61646 0,1.16442 0.13699,1.71238 0.13699,0.54796 0.34247,0.95893 0.61645,1.3699 0.27398,0.41097 0.68495,0.68495 1.16442,0.89044 0.47947,0.20548 0.95893,0.27398 1.57539,0.27398 h 0.41097 c -0.20549,0.75344 -0.47947,1.4384 -0.89044,2.12335 -0.41097,0.68495 -0.82194,1.3014 -1.23291,1.84936 -0.41097,0.54796 -0.89044,1.02743 -1.30141,1.4384 -0.41097,0.41097 -0.68495,0.75345 -0.95893,1.02743 -0.34247,0.34247 -0.54796,0.61645 -0.61645,0.89043 -0.0685,0.34248 0.0685,0.68495 0.34247,0.95894 l 0.89044,1.02742 c 1.16441,-0.89043 2.12335,-1.84937 3.08228,-2.87679 0.95893,-1.02743 1.78087,-2.05486 2.46582,-3.15078 0.68495,-1.09592 1.23291,-2.19184 1.64388,-3.28776 0.41097,-1.09592 0.75345,-2.19185 0.89044,-3.21927 0.0685,-0.68495 0.0685,-1.3699 -0.0685,-1.91786 -0.13699,-0.54797 -0.34247,-1.09593 -0.61645,-1.5069 -0.27398,-0.41097 -0.75345,-0.82194 -1.23291,-1.09592 -0.47947,-0.27398 -1.09593,-0.34247 -1.78088,-0.34247 -0.61645,0 -1.09592,0.0685 -1.64388,0.27398 -0.54796,0.20548 -1.02743,0.54796 -1.4384,0.89043 -0.41097,0.34248 -0.68495,0.75345 -0.95893,1.23291 -0.27398,0.47947 -0.41097,0.89044 -0.47946,1.4384 z m 44.31634,-30.95978 c -4.24669,0 -7.60295,0.95893 -10.13727,3.01378 -2.39733,1.84937 -3.69874,4.1782 -4.04121,6.9865 -0.34248,2.67131 0.27398,4.86315 1.98635,6.43854 0.75345,0.68495 1.78088,1.30141 2.94529,1.84937 1.16442,0.54796 3.21927,1.23291 6.09607,2.19184 1.02742,0.34248 1.91786,0.75345 2.7398,1.16442 0.82194,0.41097 1.4384,1.02742 1.84937,1.64388 0.41097,0.61646 0.54796,1.57539 0.41097,2.87679 -0.13699,1.30141 -0.89044,2.46583 -2.19184,3.49325 -1.4384,1.16442 -3.28777,1.71238 -5.54811,1.71238 -2.7398,0 -5.00014,-0.47946 -6.84951,-1.3699 0.13699,-2.7398 0.13699,-4.1782 0.13699,-4.38369 -0.0685,-0.54796 -0.41097,-0.82194 -0.95893,-0.82194 h -2.39733 l -1.09592,9.04136 c 3.56175,1.3014 7.19199,1.84936 10.95922,1.84936 3.76723,0 6.918,-1.02742 9.52082,-3.15077 2.53432,-1.98636 3.97271,-4.65767 4.38368,-7.94543 0.34248,-2.53432 -0.34247,-4.58917 -2.05485,-6.09607 -0.75345,-0.68495 -1.64388,-1.23291 -2.67131,-1.71237 -1.02743,-0.47947 -2.05485,-0.82195 -3.15077,-1.23292 -1.09593,-0.34247 -2.46583,-0.82194 -4.10971,-1.3699 -1.64388,-0.54796 -2.87679,-1.30141 -3.63024,-2.39733 -0.47947,-0.61645 -0.61646,-1.50689 -0.47947,-2.67131 0.13699,-1.16441 0.89044,-2.19184 2.19185,-3.15077 1.3014,-0.95893 3.01378,-1.4384 4.93164,-1.4384 h 0.0685 c 1.50689,0 3.21927,0.20549 5.20563,0.68495 -0.13699,2.8768 -0.13699,4.45218 -0.13699,4.52068 0.0685,0.61646 0.41097,0.95893 1.09592,0.95893 h 2.67131 l 0.82194,-6.50703 0.27398,-2.39733 c -3.49325,-1.23291 -6.43854,-1.78087 -8.83587,-1.78087 z m 29.86394,0 c -2.53432,0 -4.86316,0.41097 -6.9865,1.23291 -2.12335,0.82194 -4.04122,1.98636 -5.6851,3.56174 -1.64388,1.57539 -2.94529,3.49325 -3.97271,5.6851 -1.02743,2.19184 -1.78088,4.58917 -2.12335,7.32897 -0.34248,2.73981 -0.20549,5.20563 0.27398,7.39747 0.47946,2.19185 1.4384,4.04121 2.67131,5.6166 1.23291,1.57539 2.8083,2.8083 4.72616,3.63024 1.91786,0.82194 4.1782,1.23291 6.71252,1.23291 2.53432,0 4.93165,-0.41097 7.05499,-1.23291 2.12335,-0.82194 3.97272,-2.05485 5.6166,-3.63024 1.64389,-1.57539 2.94529,-3.42475 3.97272,-5.6166 1.02743,-2.19184 1.71238,-4.65766 2.05485,-7.39747 0.34248,-2.7398 0.27398,-5.13713 -0.20548,-7.32897 -0.47947,-2.19185 -1.36991,-4.10971 -2.60282,-5.6851 -1.23291,-1.57538 -2.87679,-2.7398 -4.79465,-3.56174 -1.91787,-0.82194 -4.17821,-1.23291 -6.71252,-1.23291 z m -3.76723,30.89129 c -1.71238,0 -3.15078,-0.27398 -4.38369,-0.89044 -1.23291,-0.61646 -2.19184,-1.4384 -2.94529,-2.53432 -0.75345,-1.09592 -1.16442,-2.39733 -1.3699,-4.04121 -0.20549,-1.64388 -0.27398,-3.49325 0,-5.5481 0.27398,-2.05486 0.75344,-3.90422 1.3699,-5.54811 0.61646,-1.64388 1.3699,-3.01378 2.39733,-4.1097 1.02742,-1.09592 2.12335,-1.98636 3.49325,-2.60282 1.3699,-0.61645 2.94529,-0.89043 4.65766,-0.89043 3.42476,0 5.82209,1.16441 7.26049,3.49325 1.43839,2.32883 1.78087,5.5481 1.3014,9.65781 -0.47946,4.1097 -1.71237,7.26048 -3.69873,9.58931 -1.98636,2.32883 -4.65767,3.42476 -8.08242,3.42476 z m 32.80918,0.13699 c -0.41097,-0.0685 -1.64388,-0.41097 -3.83572,-0.82194 l 5.61659,-45.41226 h -11.02771 l -0.34247,2.8768 c -0.0685,0.68495 0.13699,1.16441 0.82194,1.3014 0.41097,0.0685 1.71238,0.41097 3.83572,0.82195 l -5.61659,45.41225 h 11.0962 l 0.34248,-2.94529 c 0.0685,-0.68495 -0.20549,-1.09592 -0.89044,-1.23291 z M 903.599,393.30637 c -2.53431,0 -4.86315,0.41097 -6.9865,1.23291 -2.12334,0.82194 -4.04121,1.98636 -5.68509,3.56174 -1.64388,1.57539 -2.94529,3.49325 -3.97271,5.6851 -1.02743,2.19184 -1.78088,4.58917 -2.12335,7.32897 -0.34248,2.73981 -0.20549,5.20563 0.27398,7.39747 0.47946,2.19185 1.43839,4.04121 2.67131,5.6166 1.23291,1.57539 2.8083,2.8083 4.72616,3.63024 1.91786,0.82194 4.1782,1.23291 6.71252,1.23291 2.53432,0 4.93165,-0.41097 7.05499,-1.23291 2.12335,-0.82194 3.97272,-2.05485 5.6166,-3.63024 1.64388,-1.57539 2.94529,-3.42475 3.97272,-5.6166 1.02742,-2.19184 1.71238,-4.65766 2.05485,-7.39747 0.34248,-2.7398 0.27398,-5.13713 -0.20548,-7.32897 -0.47947,-2.19185 -1.36991,-4.10971 -2.60282,-5.6851 -1.23291,-1.57538 -2.87679,-2.7398 -4.79466,-3.56174 -1.91786,-0.82194 -4.1782,-1.23291 -6.71252,-1.23291 z m -3.76723,30.89129 c -1.71237,0 -3.15077,-0.27398 -4.38368,-0.89044 -1.23291,-0.61646 -2.19185,-1.4384 -2.94529,-2.53432 -0.75345,-1.09592 -1.16442,-2.39733 -1.3699,-4.04121 -0.20549,-1.64388 -0.27398,-3.49325 0,-5.5481 0.27398,-2.05486 0.75344,-3.90422 1.3699,-5.54811 0.61645,-1.64388 1.3699,-3.01378 2.39733,-4.1097 1.02742,-1.09592 2.12335,-1.98636 3.49325,-2.60282 1.3699,-0.61645 2.94529,-0.89043 4.65766,-0.89043 3.42476,0 5.82209,1.16441 7.26048,3.49325 1.4384,2.32883 1.78088,5.5481 1.30141,9.65781 -0.47946,4.1097 -1.71238,7.26048 -3.69873,9.58931 -1.98636,2.32883 -4.65767,3.42476 -8.08243,3.42476 z"
       id="text32"
       style="font-style:italic;font-size:68.4951px;line-height:1.3;font-family:Aleo;-inkscape-font-specification:'Aleo, Italic';fill:#182ea0;stroke-width:21.4048;stroke-linecap:round"
       aria-label="first edition, solo" />
    <text
       xml:space="preserve"
       style="font-style:normal;font-variant:normal;font-weight:normal;font-stretch:normal;font-size:152.16px;line-height:1.3;font-family:'Reem Kufi';-inkscape-font-specification:'Reem Kufi, Normal';font-variant-ligatures:normal;font-variant-caps:normal;font-variant-numeric:normal;font-variant-east-asian:normal;display:none;fill:#091450;fill-opacity:1;stroke:none;stroke-width:47.5501;stroke-linecap:round"
       x="359.18182"
       y="336.09683"
       id="text51"><tspan
         sodipodi:role="line"
         id="tspan51"
         x="359.18182"
         y="336.09683"
         style="font-style:normal;font-variant:normal;font-weight:normal;font-stretch:normal;font-size:152.16px;font-family:'Reem Kufi';-inkscape-font-specification:'Reem Kufi, Normal';font-variant-ligatures:normal;font-variant-caps:normal;font-variant-numeric:normal;font-variant-east-asian:normal;fill:#091450;fill-opacity:1;stroke:none;stroke-width:47.5501">Talking <tspan
   style="font-style:normal;font-variant:normal;font-weight:normal;font-stretch:normal;font-size:152.16px;font-family:'Reem Kufi';-inkscape-font-specification:'Reem Kufi, Normal';font-variant-ligatures:normal;font-variant-caps:normal;font-variant-numeric:normal;font-variant-east-asian:normal;fill:#091450;fill-opacity:1;stroke-width:47.5501"
   id="tspan50">Magic</tspan> Equines</tspan></text>
    <text
       xml:space="preserve"
       style="font-style:italic;font-variant:normal;font-weight:normal;font-stretch:normal;font-size:68.4951px;line-height:1.3;font-family:Aleo;-inkscape-font-specification:'Aleo, Italic';font-variant-ligatures:normal;font-variant-caps:normal;font-variant-numeric:normal;font-variant-east-asian:normal;display:none;fill:#182ea0;fill-opacity:1;stroke:none;stroke-width:21.4048;stroke-linecap:round"
       x="436.94159"
       y="428.51285"
       id="text52"><tspan
         sodipodi:role="line"
         id="tspan52"
         x="436.94159"
         y="428.51285"
         style="font-style:italic;font-variant:normal;font-weight:normal;font-stretch:normal;font-size:68.4951px;font-family:Aleo;-inkscape-font-specification:'Aleo, Italic';font-variant-ligatures:normal;font-variant-caps:normal;font-variant-numeric:normal;font-variant-east-asian:normal;stroke-width:21.4048">first edition, solo</tspan></text>
  </g>
  <g
     inkscape:groupmode="layer"
     id="layer4"
     inkscape:label="Magic dot">
    <path
       style="fill:none;fill-opacity:1;stroke:#ebbe17;stroke-width:9.37479;stroke-linecap:round;stroke-dasharray:none;stroke-opacity:1"
       d="m 1208.1414,258.63106 c 0.2377,-0.13808 0.5039,-0.23611 0.7129,-0.41458 1.8107,-1.5454 3.7036,-3.81747 5.4291,-5.47835 3.2595,-3.13765 6.6208,-6.15435 10.0355,-9.12073 0.21,-0.18242 4.2775,-3.35754 4.2775,-4.11618"
       id="path4" />
    <path
       style="fill:none;fill-opacity:1;stroke:#ebbe17;stroke-width:9.37479;stroke-linecap:round;stroke-dasharray:none;stroke-opacity:1"
       d="m 1203.9188,244.83151 c 0.4752,0.22703 0.9361,0.48718 1.4258,0.6811 1.6298,0.64538 3.3466,1.04933 4.9903,1.65832 5.695,2.10991 11.2405,4.51552 17.1097,6.10023 1.4822,0.40015 4.696,0.82065 3.455,1.6583"
       id="path5" />
    <path
       style="fill:none;fill-opacity:1;stroke:#ebbe17;stroke-width:9.37479;stroke-linecap:round;stroke-dasharray:none;stroke-opacity:1"
       d="m 1215.2156,236.86568 c 0.4621,4.60323 1.2895,9.22612 2.1935,13.76994 0.6262,3.14696 1.3238,8.51547 2.9613,12.0524"
       id="path9" />
  </g>
</svg>
